# xmcd
#
# Track frame offsets: 
#        150
#        17626
#        30536
#        43812
#        55424
#        68696
#        86689
#        98524
#        109169
#        134601
#        159839
#        176026
#        193421
#        206348
#        218844
#
# Disc length: 3072 seconds
#
# Revision: 11
# Processed by: cddbd v1.5.2PL0 Copyright (c) Steve Scherf et al.
# Submitted via: ExactAudioCopyFreeDBPlugin 1.0
#
DISCID=d00bfe0f
DTITLE=Various Artist - Heart and Soul
DYEAR=2004
DGENRE=Soul
TTITLE0=Diana Ross - Touch Me In The Morning - Diana Ross
TTITLE1=Smokey Robinson and The Miracles - Tracks Of My Tears - Smokey R
TTITLE1=obinson and The Miracles
TTITLE2=Fontella Bass - Rescue Me - Fontella Bass
TTITLE3=Erma Franklin - Piece Of My Heart - Erma Franklin
TTITLE4=Jackie Wilson - (Your Love Keeps Lifting Me) Higher And Higher
TTITLE4=Jackie Wilson
TTITLE5=Marvin Gaye - Let's Get It On - Marvin Gaye
TTITLE6=Sam and Dave - Soul Man - Sam and Dave
TTITLE7=Sly and The Family Stone - Everyday People - Sly and The Family St
TTITLE7=one
TTITLE8=Earth, Wind And Fire - Let's Groove - Earth, Wind And Fire
TTITLE9=Isley Brothers - That Lady (Parts 1 And 2) - Isley Brothers
TTITLE10=Pasadenas - Let's Stay Together - Pasadenas
TTITLE11=Luther Vandross - Never Too Much - Luther Vandross
TTITLE12=Bob and Earl - Harlem Shuffle - Bob and Earl
TTITLE13=Johnny Nash - I Can See Clearly Now - Johnny Nash
TTITLE14=Ike and Tina Turner - Somebody, Somewhere Needs You - Ike and Tin
TTITLE14=a Turner
EXTD=YEAR: 2004
EXTT0=
EXTT1=
EXTT2=
EXTT3=
EXTT4=
EXTT5=
EXTT6=
EXTT7=
EXTT8=
EXTT9=
EXTT10=
EXTT11=
EXTT12=
EXTT13=
EXTT14=
PLAYORDER=
